<?xml version="1.0" encoding="utf-8"?>
<!-- Generator: Adobe Illustrator 27.5.0, SVG Export Plug-In . SVG Version: 6.00 Build 0)  -->
<svg version="1.1" xmlns="http://www.w3.org/2000/svg" xmlns:xlink="http://www.w3.org/1999/xlink" x="0px" y="0px"
	 viewBox="0 0 500 500" style="enable-background:new 0 0 500 500;" xml:space="preserve">
<g id="BACKGROUND">
	<rect style="fill:#FFD58F;" width="500" height="500"/>
</g>
<g id="OBJECT">
	<g>
		<path style="fill:#E8B770;" d="M253.847,132.528c0,0-23.16,0.217-26.372,20.091c-3.211,19.874-10.453,14.324-22.09,11.731
			c-11.637-2.594-17.046,1.101-12.597,8.043c4.449,6.942-24.81-7.998-41.524-11.092c-16.714-3.094-32.293,7.535-28.218,23.935
			c4.075,16.4,0.075,22.149-24.496,17.274c-24.572-4.875-27.429,7.966-22.286,19.831c5.143,11.865,29.714,10.995,20,18.859
			c-9.714,7.864-16.286,5.149-16.429,10.864c-0.251,10.02,30.202,1.796,44.5,22.614c14.298,20.818,178.72,32.543,231.61,23.75
			c52.89-8.793,52.89-14.969,68.89-14.167c16,0.802,23.429-8.301,9.714-10.892c-13.714-2.591-19.429-6.614-7.429-11.174
			c12-4.56,17.143-19.283,10.286-22.207c-6.857-2.924-23.429,6.18-20-3.515c3.429-9.695,37.785-14.198,24.321-32.232
			c-13.464-18.034-34.961-5.872-36.784-19.667c-1.823-13.795-6.615-29.543-23.648-31.955c-17.033-2.412-27.995,23.302-37.371,8.445
			c-9.376-14.857-23.54-21.143-37.601-15.429c-14.061,5.714-11.204,23.485-24.632,19.171
			C268.264,160.492,281.145,133.706,253.847,132.528z"/>
		<path style="fill:#FFD58F;" d="M152.936,242.168c0,0-1.168-3.804-3.378-4.96c-2.211-1.156-1.126-3.372-4.659-4.047
			c-3.533-0.675-3.582,3.116-0.927,5.091c2.655,1.975,4.935,2.133,6.767,4.623C152.571,245.364,153.24,243.979,152.936,242.168z"/>
		<path style="fill:#FFD58F;" d="M128.716,221.797c0,0-2.38-3.189-4.851-3.534c-2.471-0.344-2.195-2.796-5.75-2.242
			c-3.554,0.553-2.324,4.14,0.841,5.106c3.165,0.966,5.365,0.347,7.928,2.076C129.448,224.93,129.611,223.4,128.716,221.797z"/>
		<path style="fill:#E8B770;" d="M115.377,301.363c0,0-3.695,3.198-8.473,1.85c-4.777-1.348-5.364,2.581-9.824,4.393
			c-4.46,1.811-9.614,4.363-12.038,0.116c-2.424-4.247,7.762-11.682,13.47-12.817c5.708-1.135,10.624,3.077,14.292,1.592
			C116.473,295.011,120.428,297.01,115.377,301.363z"/>
		<path style="fill:#FFD58F;" d="M146.563,242.82c0,0-2.619-2.939-6.287-2.427c-3.669,0.512-3.908-2.646-7.174-4.582
			c-3.267-1.937-7.017-4.535-9.063-1.473c-2.046,3.062,5.244,10.079,9.486,11.626c4.242,1.548,8.163-1.201,10.849,0.388
			C147.061,247.941,150.143,246.823,146.563,242.82z"/>
		<path style="fill:#FFD58F;" d="M383.525,256.892c0,0,1.592-2.801,4.616-3.02c3.024-0.219,2.674-2.787,4.956-4.896
			c2.282-2.109,4.839-4.831,7.001-2.731c2.162,2.1-2.471,8.964-5.6,10.93c-3.129,1.965-6.738,0.438-8.616,2.169
			C384.003,261.076,381.345,260.709,383.525,256.892z"/>
		<path style="fill:#E8B770;" d="M425.412,291.477c0,0,3.785,0.064,5.714,3.058c1.929,2.994,4.38,1.187,7.84,2.352
			c3.461,1.165,7.707,2.268,6.759,5.68c-0.947,3.412-10.634,2.503-14.424,0.383c-3.789-2.12-4.247-6.701-7.091-7.662
			C421.368,294.328,420.249,291.38,425.412,291.477z"/>
		<path style="fill:#E8B770;" d="M413.013,321.827c0,0,7.778,1.566,8.682,5.591c0.904,4.024-3.678,4.482-8.317,0.611
			c-4.639-3.871-5.094-3.197-5.166-5.123C408.138,320.979,413.013,321.827,413.013,321.827z"/>
		<path style="fill:#FFD58F;" d="M397.007,261.049c0,0,7.899-4.668,11.788-1.906s0.303,6.697-6.679,6.957
			c-6.982,0.259-6.852,1.189-8.404-0.41C392.161,264.089,397.007,261.049,397.007,261.049z"/>
		<path style="fill:#E8B770;" d="M407.966,333.056c0,0,11.653,6.281,11.139,13.143s-8.048,5.366-13.572-3.068
			c-5.523-8.433-8.934-10.2-8.114-13.309S407.966,333.056,407.966,333.056z"/>
		<path style="fill:#FFD58F;" d="M149.032,217.499c0,0-3.962-7.361-7.11-7.503c-3.148-0.143-2.685,2.729,0.169,4.673
			c2.854,1.944,5.531,5.546,6.846,5.743C150.251,220.61,149.032,217.499,149.032,217.499z"/>
		<path style="fill:#E8B770;" d="M121.212,305.874c0,0-9.207,1.592-10.558,5.144c-1.35,3.552,1.829,4.172,4.95,1.68
			c3.121-2.492,7.908-4.118,8.617-5.546C124.929,305.723,121.212,305.874,121.212,305.874z"/>
		<path style="fill:#FFD58F;" d="M398.436,276.089c0,0,8.24,1.406,10.29-0.987c2.05-2.393-0.499-3.796-3.787-2.743
			c-3.288,1.053-7.775,0.947-8.74,1.862C395.234,275.135,398.436,276.089,398.436,276.089z"/>
		<path style="fill:#E8B770;" d="M111.245,268.713c0,0-18.624-4.105-23.548,1.114c-4.924,5.22,0.734,8.69,8.337,6.656
			c7.603-2.034,17.814-1.299,20.109-3.275C118.438,271.234,111.245,268.713,111.245,268.713z"/>
		<path style="fill:#FFD58F;" d="M148.856,212.218c0,0-3.725-3.983-2.617-5.173c1.108-1.19,3.312,0.791,4.186,3.594
			C151.298,213.441,149.646,213.13,148.856,212.218z"/>
		<path style="fill:#FFD58F;" d="M257.096,209.263c0,0,2.802-2.826,2.776-5.321c-0.025-2.495,2.44-2.585,1.366-6.018
			c-1.074-3.433-4.439-1.685-4.925,1.588c-0.486,3.273,0.451,5.358-0.878,8.148C254.106,210.451,255.643,210.386,257.096,209.263z"
			/>
		<path style="fill:#FFD58F;" d="M263.609,178.292c0,0,1.687-3.604,0.823-5.945c-0.864-2.341,1.427-3.256-0.74-6.127
			c-2.167-2.871-4.747-0.092-4.103,3.153c0.644,3.246,2.229,4.893,1.916,7.968C261.193,180.418,262.619,179.839,263.609,178.292z"/>
		<path style="fill:#FFD58F;" d="M253.511,203.954c0,0,1.353-3.696-0.831-6.688c-2.184-2.992,0.486-4.694,0.65-8.488
			c0.164-3.794,0.682-8.327-2.983-8.684c-3.665-0.357-6.406,9.383-5.766,13.853c0.639,4.47,4.914,6.627,4.783,9.746
			C249.232,206.812,251.674,209,253.511,203.954z"/>
		<path style="fill:#FFD58F;" d="M276.994,194.169c0,0,4.616-6.97,3.255-9.811c-1.361-2.842-3.674-1.077-4.039,2.356
			c-0.365,3.433-2.275,7.495-1.828,8.747C274.828,196.713,276.994,194.169,276.994,194.169z"/>
		<path style="fill:#FFD58F;" d="M281.566,191.518c0,0,1.751-5.165,3.323-4.75c1.572,0.414,0.867,3.293-1.19,5.387
			C281.642,194.249,281.136,192.646,281.566,191.518z"/>
	</g>
	<g>
		<g>
			<ellipse style="fill:#D6A15B;" cx="234.519" cy="411.497" rx="116.159" ry="28.752"/>
			<path style="fill:#FFFFFF;" d="M401.266,320.244c-4.609,6.061-10.566,7.628-12.968,8.039c-0.686,0.103-1.086,0.126-1.086,0.126
				l-30.362,63.845l-7.09,14.203l-32.511,9.64l-50.648,2.939c0,0-26.485-0.412-61.261-7.513
				c-34.776-7.09-62.564-24.507-62.564-24.507l-2.424-7.799l-3.602-11.573l-18.892-68.591c-3.911-3.476-12.202-12.648-13.391-20.413
				c-0.206-1.338-0.194-2.63,0.08-3.854c0.595-2.642,2.71-4.78,5.306-6.484c5.569-3.648,13.391-5.249,13.391-5.249
				c136.496-5.523,282.711,47.023,282.711,47.023S407.19,312.468,401.266,320.244z"/>
			<path style="fill:#D4E3FC;" d="M401.266,320.244c-4.609,6.061-10.566,7.628-12.968,8.039
				c-8.622-16.033-20.31-13.323-48.167-20.984c-28.543-7.845-190.129-20.538-204.881-30.819c-12.019-8.371-22.094-8.44-25.399-8.177
				c5.569-3.648,13.391-5.249,13.391-5.249c136.496-5.523,282.711,47.023,282.711,47.023S407.19,312.468,401.266,320.244z"/>
			<path style="fill:#D4E3FC;" d="M261.048,348.14c13.723,3.267,16.848,6.208,39.791,4.247c22.942-1.96,33.819-12.386,46.548-8.792
				c12.73,3.594,26.648-12.906,26.648-12.906s-85.542,18.21-132.101,10.152c-46.039-7.968-83.791-19.241-110.441-34.655
				c-2.134-2.563-3.948-5.235-4.075-7.053c-0.332-4.574,3.168-5.718,3.168-5.718l-12.156-14.546c0,0-9.423-5.535-13.963-0.229
				c1.189,7.765,9.48,16.936,13.391,20.413l18.892,68.591l6.027,19.372c0,0,27.789,17.417,62.564,24.507
				c34.776,7.102,61.261,7.513,61.261,7.513l50.648-2.939l32.511-9.64l7.09-14.203c-20.184,6.816-75.612,22.197-137.628,10.772
				c-32.952-6.063-43.366-11.403-58.746-21.639c-2.795-10.419-10.939-20.721-12.07-31.94c-1.795-17.805-0.245-27.612-0.245-27.612
				s16.661,11.416,43.292,19.007C234.256,353.041,247.325,344.873,261.048,348.14z"/>
			<path style="fill:#5F3E1B;" d="M367.06,284.754l-4.556,2.109l10.621,2.976c0,0,21.518,5.886,28.831,18.048
				c7.313,12.163-16.259,19.077-16.259,19.077s-33.29,74.159-40.025,78.027c-15.928,9.148-57.629,13.65-100.307,9.475
				c-71.279-6.973-97.366-25.485-99-26.792c-1.634-1.307-26.874-89.933-26.874-89.933l-9.759-10.532
				c-3.358-5.063-5.186-10.974-0.288-15.392c10.537-9.506,32.837-8.872,32.837-8.872l11.027,0.245l-8.577-4.656
				c-18.855-1.145-43.568,7.894-41.005,21.483c1.182,6.269,7.984,15.554,11.681,18.379c9.626,20.475,20.005,84.616,26.874,91.485
				c4.247,4.247,35.532,23.28,104.736,29.406c73.982,6.549,97.535-6.698,103.661-13.151c1.872-1.972,31.746-59.239,38.245-76.659
				c5.415-1.281,13.995-5.791,18.379-13.233C412.57,307.299,394.376,291.787,367.06,284.754z"/>
			<path style="fill:#5F3E1B;" d="M144.731,272.012c0,0-29.406-2.287-28.752,8.822c0.653,11.109,52.604,39.535,133.96,46.069
				c81.356,6.535,136.247-9.148,140.495-19.277c4.247-10.129-19.931-14.703-19.931-14.703L144.731,272.012z"/>
			<path style="fill:#5F3E1B;" d="M380.305,326.965c0,0-86.257,19.542-155.198,8.433c-68.94-11.109-99.234-35.265-99.234-35.265
				c0,5.533,44.833,36.899,125.209,42.453c4.501,0.311,8.908,0.539,13.226,0.7l-0.019,0.002c13.207,0.702,34.403,0.334,56.388-2.446
				c21.879-2.767,42.467-6.516,42.467-6.516C375.517,331.377,380.305,326.965,380.305,326.965z"/>
			<path style="fill:#85603C;" d="M305.728,323.419c0,0,4.367-2.808,7.043-3.175s8.975,1.424,13.704,2.247
				c4.729,0.823-3.349,3.757-12.171,3.676C305.483,326.086,302.798,325.082,305.728,323.419z"/>
			<path style="fill:#85603C;" d="M198.089,317.485c0,0,7.046-0.718,10.477,0c3.431,0.718,3.247,1.882-1.777,1.821
				C201.766,319.245,195.881,317.661,198.089,317.485z"/>
			<path style="fill:#85603C;" d="M214.754,319.919c0,0,5.575,2.365,11.824,3.112c6.249,0.747,8.209,0.047,3.737-1.196
				c-4.472-1.243-10.947-1.97-13.487-2.783C214.287,318.239,213.59,319.122,214.754,319.919z"/>
			<path style="fill:#85603C;" d="M158.045,304.848c0,0-3.104-3.839-5.309-5.391c-2.205-1.552-1.752-1.783-4.493-1.634
				c-2.74,0.15-0.327,1.96,4.166,5.146C156.902,306.155,158.045,304.848,158.045,304.848z"/>
			<path style="fill:#85603C;" d="M290.004,325.282c0,0,8.128-2.137,9.19-0.912C300.256,325.596,294.081,328.368,290.004,325.282z"
				/>
			<path style="fill:#85603C;" d="M123.887,275.892c0,0-1.912,2.768-1.132,5.784c0.78,3.016,3.541,2.602,3.631,4.8
				c0.09,2.198-4.872-0.252-6.771-3.806C117.714,279.118,122.033,274.443,123.887,275.892z"/>
		</g>
		<g>
			<path style="fill:#5F3E1B;" d="M285.763,209.589c0,0,23.646-57.559,28.542-60.919c4.897-3.36,7.907,2.737,12.707,3.483
				c4.8,0.747,8.405-3.641,19.604-3.267c11.199,0.373,9.703,6.482,14.902,6.482c5.2,0,9.749-2.071,20.548,0.542
				c10.799,2.613,15.114,11.962,19.114,17.562c4,5.599,8.491,3.106,14.09,8.332c5.6,5.226,1.489,9.902,4.288,11.395
				c2.8,1.493,10.381,8.244,11.181,12.724c0.8,4.48-67.542,76.252-67.542,76.252s-60.236-12.195-67.035-30.258
				C289.362,233.853,285.763,209.589,285.763,209.589z"/>
			<path style="fill:#DC911B;" d="M425.19,206.597c0.743,4.288-68.236,75.589-68.236,75.589s-52.272-11.687-58.619-28.978
				c-6.358-17.302-9.709-40.539-9.709-40.539s2.276-5.969,5.523-14.169c6.793-17.154,17.794-44.05,20.893-46.234
				c3.248-2.287,5.329,0.126,7.856,1.967c1.029,0.743,2.138,1.407,3.431,1.613c1.898,0.297,3.797-0.103,6.164-0.64
				c3.191-0.732,7.239-1.715,13.254-1.509c2.539,0.091,4.46,0.412,5.981,0.846c4.723,1.338,5.638,3.762,9.24,3.808h0.091
				c4.86,0,7.845-2.504,17.92,0c5.889,1.452,10.624,6.564,14.295,11.641c2.619,3.614,4.689,7.204,6.244,9.446
				c0.938,1.338,1.83,2.081,2.71,2.504c2.665,1.292,5.318-0.183,9.24,3.568c5.226,5.009,0.743,8.577,3.362,10.006
				c1.349,0.743,3.865,2.527,6.095,4.677C423.006,202.194,424.824,204.515,425.19,206.597z"/>
			<path style="fill:#C67812;" d="M420.924,200.193c-9.537,11.996-58.585,53.69-66.681,54.01c-5.552,0.228-4.148-7.525-5.7-10.913
				c2.778-2.498,4.913-5.656,6.195-9.989c1.96-6.623-4.166-10.777-5.146-16.542c-0.98-5.764,1.061-10.787-5.963-17.22
				c-7.024-6.433-5.799-4.227-13.641-3.982c-7.841,0.245-9.869,3.395-6.65,4.638c0,0,9.427-3.017,17.105,3.892
				c7.678,6.908,1.797,9.849,6.453,16.71c4.656,6.861,5.881,10.537,0,16.663c-1.937,2.017-3.508,4.027-4.573,5.721
				c-8.153,3.833-10.667,2.338-6.95-7.64c3.922-10.498,0.983-15.964-7.502-25.776c-8.485-9.8-17.336,6.255-19.143,0
				c-1.166-3.991-9.034-8.52-14.581-11.264c-3.248,8.199-5.523,14.169-5.523,14.169s3.351,23.237,9.709,40.539
				c6.347,17.291,58.619,28.978,58.619,28.978s68.98-71.301,68.236-75.589C424.824,204.515,423.006,202.194,420.924,200.193z"/>
			<path style="fill:#C67812;" d="M332.493,155.205c-0.011,0.549-0.103,1.178-0.297,1.875c-2.207,8.085-20.836,50.237-25.73,46.806
				c-4.906-3.431,3.671-10.292,9.961-27.686c4.071-11.264,5.786-18.366,6.473-21.968c1.029,0.743,2.138,1.407,3.431,1.613
				C328.227,156.143,330.125,155.742,332.493,155.205z"/>
			<path style="fill:#C67812;" d="M360.967,158.35c-0.537,1.887-1.384,3.819-2.71,4.86c-3.099,2.447-6.21,6.861-11.801,15.758
				c-5.592,8.908-8.622,9.24-6.324,0c1.978-7.959,8.703-20.55,11.596-24.426C356.45,155.88,357.365,158.304,360.967,158.35z"/>
			<path style="fill:#C67812;" d="M402.227,181.941c-1.772,5.409-8.005,6.873-21.51,18.251c-15.69,13.22-20.836,23.054-18.869,16.57
				c1.956-6.495,16.17-21.693,25.479-33.301c4.872-6.072,5.992-10.566,5.947-13.471c2.619,3.614,4.689,7.204,6.244,9.446
				C400.455,180.775,401.347,181.518,402.227,181.941z"/>
			<path style="fill:#C67812;" d="M373.975,224.84c0,0,1.838-0.858,4.533-0.858c2.695,0,2.818,1.838,2.328,3.431
				c-0.49,1.593-1.491-0.735-3.318-0.98C375.69,226.188,371.401,226.31,373.975,224.84z"/>
			<path style="fill:#C67812;" d="M355.123,179.159c0,0,4.639-1.736,8.192-0.633c3.553,1.103,3.553,7.842,1.838,8.087
				c-1.715,0.245-2.857-1.96-4.185-4.227c-1.328-2.267-4.358-1.41-5.845-1.655C353.635,180.486,355.123,179.159,355.123,179.159z"/>
			<path style="fill:#C67812;" d="M359.149,196.904c0,0,1.225,2.782,2.941,3.29c1.715,0.508,1.413-2.82-0.641-5.199
				c-2.054-2.379-4.995-3.115-5.24-1.522C355.963,195.066,358.689,196.029,359.149,196.904z"/>
			<path style="fill:#C67812;" d="M375.812,164.558c0,0,4.087,0.98,6.025,3.553c1.939,2.573,4.022,4.901,4.757,3.308
				c0.735-1.593-2.573-6.371-6.371-8.209c-3.798-1.838-8.087-2.451-8.087-0.858C372.137,163.945,375.812,164.558,375.812,164.558z"
				/>
			<path style="fill:#C67812;" d="M329.743,170.158c0,0,3.308-0.699,5.023-2.17c1.715-1.47-0.382-2.477-2.274-1.3
				C330.601,167.866,329.498,168.652,329.743,170.158z"/>
			<path style="fill:#C67812;" d="M303.768,183.794c0,0,4.411,4.901,5.514,3.798c1.103-1.103-0.735-4.411-2.757-6.126
				C304.503,179.751,302.809,182.79,303.768,183.794z"/>
			<path style="fill:#C67812;" d="M311.365,165.293c0,0,3.431,3.063,4.411,2.083c0.98-0.98-1.715-4.288-3.186-4.411
				S309.887,164.129,311.365,165.293z"/>
			<path style="fill:#C67812;" d="M392.394,207.319c0,0,3.267-2.124,6.044,0c2.777,2.124,3.757,0.853,4.738-0.472
				c0.98-1.325,0.98-2.239-3.431-2.762c-4.411-0.523-5.554,0.13-6.535,0.947C392.231,205.848,391.087,206.502,392.394,207.319z"/>
		</g>
		<g>
			<path style="fill:#5F3E1B;" d="M144.969,178.473c-1.572-0.142-2.552-0.493-2.733-0.562l-1.619-0.618l0.964-10.652l2.411,0.526
				c0.339,0.01,2.418-0.03,8.185-2.013c2.604-0.895,4.754-3.167,5.898-6.233c1.072-2.871,2.161-8.911-2.588-17.112
				c-2.257-3.897-3.744-7.644-4.719-11.002c-0.202,1.09-0.355,2.256-0.436,3.495c-0.602,9.12,7.49,20.797,7.571,20.913l0.8,1.143
				l-3.457,6.559l-1.724-0.408c-2.995-0.708-11.666-9.857-12.462-26.695c-0.798-16.851,9.43-25.522,9.857-25.967l3.198-3.331
				l1.143,7.326c0.703,0.007,1.43,0.044,2.176,0.111c12.02,1.089,26.604,9.757,27.219,10.125l1.126,0.674l-0.369,33.248
				l-0.698,0.666c-0.44,0.42-2.957,2.485-9.283,1.912c-2.929-0.265-5.31-1.428-7.063-2.654c-0.893,3.5-2.987,8.549-7.882,13.714
				C154.227,178.241,148.078,178.754,144.969,178.473z"/>
			<path style="fill:#EAC52D;" d="M183.478,126.041c0,0-18.213-10.913-30.166-9.838l-0.744-4.772c0,0-9.78,10.187-9.02,26.249
				c0.76,16.062,8.816,22.205,10.502,22.604l1.981-3.757c0,0-8.642-12.347-7.98-22.375c0.357-5.404,1.956-9.539,3.356-12.215
				c0.393,4.495,1.769,11.317,6.06,18.727c7.518,12.983,2.819,24.122-4.546,26.654c-7.365,2.532-9.295,2.111-9.295,2.111
				l-0.575,6.345c0,0,7.611,2.904,15.772-5.707c8.161-8.611,7.914-16.753,7.914-16.753s3.285,4.48,8.898,4.989
				c5.613,0.508,7.498-1.289,7.498-1.289L183.478,126.041z"/>
			<path style="fill:#5F3E1B;" d="M208.18,131.47C44.526,58.658,42.641,58.957,42.321,58.668c-1.878-1.694-1.595-7.442-0.476-12.151
				c0,0,6.046-9.452,8.779-8.541c7.372,2.459,162.273,85.358,162.273,85.358l0.21,0.89c0.878,3.729-2.451,6.635-2.834,6.954
				l-0.955,0.796L208.18,131.47z"/>
			<path style="fill:#DB9A26;" d="M156.314,117.963c0,0-0.784,3.321,2.752,10.5c3.536,7.179,5.197,8.786,5.197,8.786
				s-4.312-10.425-4.011-14.357c0,0,4.279,8.571,7.064,12.643c2.786,4.072,3.214,4.072,3.214,4.072s-3.536-10.072-4.5-13.179
				c0,0,4.929,2.25,7.393,10.071c2.464,7.822,0.926,12.536,0.926,12.536s-2.426-1.928-3.819-5.196c0,0,0.107,4.232,2.143,7.125
				c0,0-7.459-3.429-9.408-9.107c0,0-0.16,3.214,2.267,7.393c2.427,4.179,8.817,7.893,8.817,7.893s3.895-2.214,4.645-6.714
				s0-27.117,0-27.117L156.314,117.963z"/>
			<path style="fill:#DC911B;" d="M50.247,40.758c0,0-4.004,3.076-4.933,7.005c-0.929,3.928-1.806,7.288-0.746,8.243
				c1.06,0.956,164.425,73.639,164.425,73.639s2.79-2.327,2.169-4.962L50.247,40.758z"/>
			<path style="fill:#5F3E1B;" d="M217.224,132.376C42.964,90.929,42.313,92.318,41.945,92.093c-2.157-1.32-4.355-7.87-3.434-12.634
				c1.752-9.066,6.424-10.094,6.424-10.094l175.428,54.145l0.37,0.837c1.551,3.505-1.188,6.974-1.505,7.358l-0.793,0.959
				L217.224,132.376z"/>
			<path style="fill:#C17614;" d="M45.293,72.282c0,0-3.37,3.761-3.56,7.793c-0.19,4.032-0.434,7.496,0.784,8.24
				c1.218,0.744,175.169,42.118,175.169,42.118s2.314-2.8,1.219-5.277L45.293,72.282z"/>
			<path style="fill:#5F3E1B;" d="M180.196,270.447c-6.891-0.624-12.342-3.937-16.2-9.845c-3.606-5.524-5.905-12.743-6.839-21.469
				c-3.327-3.608-9.351-12.015-8.267-29.12c1.318-20.815,21.762-47.926,28.086-56.412c2.457-10.301,3.04-18.891,1.785-26.248
				c-2.529-14.82-8.846-27.197-15.623-30.299c-1.76-0.806-6.747-3.8-6.747-3.8c0.294-0.169,11.059-0.977,19.17-0.242
				c6.371,0.577,10.036,2.655,11.465,3.653c3.378,0.331,18.845,2.78,26.394,19.991c7.477,17.047,4.404,32.298-2.526,55.34
				c0.174,6.469,0.882,10.928,3.6,13.656c2.778,2.789,5.645,4.335,8.52,4.596c3.736,0.338,6.26-1.591,6.365-1.673l2.59-2.019
				l1.011,3.116l1.917,6.024l-0.822,0.967c-0.168,0.197-4.198,4.814-12.131,4.096c-0.001,0-0.001,0-0.002,0
				c-1.897-0.172-3.88-0.641-5.895-1.393c-4.913-1.836-8.689-4.577-11.287-8.184c-3.63,16.449-2.737,27.476,2.777,36.199
				c7.146,11.304-7.172,35.854-8.828,38.616l-0.331,0.552l-0.57,0.298C197.464,267.022,189.241,271.266,180.196,270.447z"/>
			<path style="fill:#F7EA3A;" d="M230.803,190.363c0,0-8.225,6.638-17.93-3.105c-3.685-3.686-4.918-9.723-5.035-15.785
				c6.748-22.4,10.733-37.368,3.492-53.904c-7.948-18.104-25.144-18.674-25.144-18.674s-3.351-2.933-10.834-3.61
				c-7.483-0.677-12.424-0.631-12.424-0.631c7.318,2.626,15.306,15.98,18.087,32.307c1.402,8.233,0.547,17.422-1.928,27.636
				c-5.733,7.645-25.31,35.152-26.611,55.737c-0.25,4.031-0.176,7.528,0.134,10.564c0.994,10.068,4.497,15.013,6.743,17.214
				c0.801,8.271,2.922,15.662,6.562,21.24c1.008,1.549,2.108,2.843,3.272,3.936c4.108,3.828,8.997,5.006,13.523,4.979
				c7.548-0.04,14.034-3.449,14.034-3.449s12.361-20.605,10.262-32.427c-0.251-1.412-0.699-2.681-1.402-3.79
				c-4.077-6.455-6.038-14.222-5.071-25.41c0.459-5.321,1.587-11.442,3.46-18.552c1.916,5.846,6.06,10.045,12.858,12.578
				c10.429,3.895,15.48-2.043,15.48-2.043L230.803,190.363z M167.633,187.755c-5.013,12.119-8.065,25.92-8.569,38.712
				c-1.686-4.964-2.938-11.68-1.351-18.942c1.958-8.94,9.602-23.485,15.339-33.586C171.421,178.384,169.615,182.985,167.633,187.755
				z"/>
			<path style="fill:#EAC52D;" d="M171.643,96.427c0,0,10.825,2.785,14.137,28.326c3.254,25.095-9.364,43.953-9.364,43.953
				l4.78-2.52c0,0,11.365-15.456,8.46-40.448c-2.904-24.991-13.987-28.947-13.987-28.947L171.643,96.427z"/>
			<path style="fill:#EAC52D;" d="M170.446,202.777c-3.45,11.99-3.761,20.863-3.761,20.863s-2.629-1.758-2.409-6.003
				c0.22-4.245-0.484-13.089,7.471-29.221c7.955-16.132,12.689-19.64,12.689-19.64S173.896,190.787,170.446,202.777z"/>
			<g>
				<path style="fill:#EAC52D;" d="M193.208,222.39c0.044,0.045,0.081,0.096,0.124,0.141
					C193.254,222.43,193.208,222.39,193.208,222.39z"/>
				<path style="fill:#EAC52D;" d="M207.006,232.393c-1.555,7.151-5.555,17.984-5.658,11.762c-0.084-5.255-1.68-8.561-2.814-10.262
					c-0.755-4.327-2.338-8.325-5.203-11.361c0.494,0.655,2.289,3.984,1.759,17.417c-0.091,2.304-0.243,4.398-0.428,6.332
					c-1.569,1.13-3.232,0.327-3.16-5.107c0.125-8.612-3.106-14.462-4.787-22.652c-1.693-8.191,5.3-33.967,5.3-33.967
					s-10.407,22.838-10.465,30.709c-0.058,7.872,7.395,30.685,3.581,30.833c-3.814,0.148-3.501-4.577-6.198-11.056
					c-1.128-2.721-2.332-4.282-3.352-5.187c-0.917-8.225-0.179-16.958,3.266-25.496c5.076-12.581,14.994-39.364,15.89-49.863
					c0.896-10.499,0.356-12.639,0.356-12.639s-1.193,13.179-16.09,49.903c-11.019,27.164-8.831,37.749-6.583,45.53
					c0.309,1.07,0.543,2.194,0.726,3.333c-0.422,0.64-1.033,0.969-1.899,0.807c-4.742-0.889-4.255-6.655-5.496-10.694
					s-3.042-3.938-3.042-3.938s-0.184,6.597-5.756,0.673c-1.602-1.707-3.065-4.067-4.342-6.571
					c0.994,10.068,4.497,15.013,6.743,17.214c0.801,8.271,2.922,15.662,6.562,21.24c1.008,1.549,2.108,2.843,3.272,3.936
					c4.592,1.656,9.681,3.54,13.523,4.979c7.548-0.04,14.034-3.449,14.034-3.449S209.105,244.214,207.006,232.393z"/>
			</g>
			<path style="fill:#EAC52D;" d="M232.331,195.175c0,0-5.05,5.938-15.48,2.043c-6.798-2.533-10.942-6.732-12.858-12.578
				c-1.872,7.11-3.001,13.232-3.46,18.552c-3.526,5.72-5.165,17.1-5.165,17.1s-1.033-3.045-1.237-8.15
				c-0.192-5.104,2.976-11.052,6.049-23.565c3.063-12.526,2.681-25.673,2.935-23.032c0.254,2.652,0.53,17.605,8.275,25.023
				C219.123,197.998,232.331,195.175,232.331,195.175z"/>
			<path style="fill:#EAC52D;" d="M188.195,101.125c0,0,8.17,12.796,10.241,34.882c2.071,22.086-4.249,46.922-4.249,46.922
				s10.993-23.921,7.674-53.93C199.993,112.115,191.989,102.699,188.195,101.125z"/>
			<path style="fill:#EAC52D;" d="M208.414,122.394c0,0,1.317,3.728,0.456,13.984s-2.5,17.58-2.5,17.58s0.665-24.49-3.027-36.698
				c-3.078-10.176-5.218-11.668-5.218-11.668S206.058,111.723,208.414,122.394z"/>
			<path style="fill:#A2C037;" d="M204.981,156.707c0,0-2.386-0.787-4.772-0.687c-2.386,0.1-2.983,0.339-2.983,0.339l1.64,3.687
				c0,0,6.512,0.348,7.059,0.447C205.925,160.493,205.776,157.941,204.981,156.707z"/>
			<path style="fill:#A37E4E;" d="M186.873,182.977c0,0,3.859-2.53,7.29-3.133c3.431-0.604,4.043,1.296,3.063,3.133
				c-0.98,1.838-4.329,2.573-7.433,3.431c-3.104,0.858-3.839-0.059-3.962-1.224C185.709,184.018,186.409,183.266,186.873,182.977z"
				/>
			<path style="fill:#A37E4E;" d="M192.184,126.245c0,0,3.41,0.919,5.501,2.572c2.091,1.654,1.317,2.97-0.232,3.345
				c-1.549,0.375-3.674-1.165-5.743-2.503s-1.92-2.224-1.316-2.887C190.997,126.11,191.783,126.127,192.184,126.245z"/>
			<path style="fill:#A2C037;" d="M175.907,170.214c0,0-2.451,3.878-1.225,7.371h4.288l0.48-6.877L175.907,170.214z"/>
			<path style="fill:#FF723F;" d="M172.55,215.283c0,0-2.398-4.548-3.806-3.806c-1.408,0.742-0.213,5.248,1.492,8.699
				c1.705,3.451,3.085,1.466,3.775,0.474C174.701,219.658,172.55,215.283,172.55,215.283z"/>
			<path style="fill:#FF723F;" d="M198.129,106.682c0,0-4.194-3.377-5.239-2.079c-1.045,1.298,1.974,5.134,5.046,7.744
				c3.072,2.61,3.575,0.129,3.827-1.112C202.013,109.995,198.129,106.682,198.129,106.682z"/>
		</g>
		<g>
			<path style="fill:#5F3E1B;" d="M187.511,261.448c0,0-3.61-15.438,0-32.101c3.61-16.663,8.409-20.781,10.886-21.538
				c4.411-1.348,26.523,13.51,26.523,13.51s11.798-23.093,21.234-23.828c9.437-0.735,27.105,18.895,27.105,18.895
				s12.405-16.541,16.173-17.276c3.768-0.735,22.117,12.104,29.338,31.953c7.22,19.849-6.025,43.015-6.365,44.297
				c-0.34,1.282-66.356,9.859-90.597,5.693C197.568,276.887,187.511,261.448,187.511,261.448z"/>
			<path style="fill:#BFB8B2;" d="M191.29,264.17c0,0-3.431-15.438,0-32.102c3.431-16.663,6.861-19.849,9.312-20.094
				c2.451-0.245,24.75,14.948,24.75,14.948s12.697-25.975,21.664-26.71c8.967-0.735,25.876,21.319,25.876,21.319
				s13.423-18.624,17.004-19.359c3.581-0.735,19.264,11.762,26.125,31.611c6.861,19.849-5.725,43.015-6.048,44.297
				c-0.323,1.282-63.056,9.859-86.09,5.693C200.847,279.608,191.29,264.17,191.29,264.17z"/>
			<path style="fill:#9B8F89;" d="M284.166,236.478c-1.715,11.767,0.492,17.462-2.939,16.456c-0.823-0.24-2.138-1.864-3.751-4.243
				c-3.305-4.883-7.891-12.956-12.225-18.926c-2.344-3.225-4.62-5.832-6.576-7.01c-1.853-1.109-3.396-1.738-4.689-2.058
				c-3.842-0.949-5.352,0.835-5.352,0.835s-8.085,10.532-12.991,24.255c-4.448,12.453-4.86,18.057-6.004,18.617
				c-0.08,0.011-0.149,0.023-0.229,0.034h-0.034c-0.034,0-0.069-0.011-0.103-0.023c-1.258-0.423-11.276-24.426-18.446-37.383
				c-1.224-2.219-2.356-4.105-3.362-5.501c-6.861-9.56-8.828-8.577-6.861-9.56c1.956-0.972,22.551,11.761,24.747,14.951
				c0,0,16.422-18.874,20.584-20.337c4.163-1.475,7.845,2.699,14.214,8.325c5.043,4.46,8.451,7.696,9.652,8.863
				c0.32,0.297,0.48,0.457,0.48,0.457s6.781-9.137,12.442-15.655c3.271-3.774,6.175-6.667,7.17-6.404
				C292.617,202.903,285.881,224.722,284.166,236.478z"/>
			<path style="fill:#D1C9C3;" d="M296.871,211.26c0,0,6.044,2.616,5.567,6.318c-0.476,3.702,5.3,8.057,2.662,11.243
				c-2.638,3.186-4.961-0.271-6.693-6.982c-1.732-6.711-4.867-10.078-4.286-11.063C294.703,209.792,296.871,211.26,296.871,211.26z"
				/>
			<path style="fill:#D1C9C3;" d="M310.677,231.32c0,0,5.147,8.459,1.882,9.074c-3.265,0.615-5.408-8.597-4.656-10.231
				C308.654,228.53,310.677,231.32,310.677,231.32z"/>
			<path style="fill:#938179;" d="M253.987,220.697c-3.842-0.949-5.352,0.835-5.352,0.835s-8.085,10.532-12.991,24.255
				c-4.448,12.453-4.86,18.057-6.004,18.617c-0.08,0.011-0.149,0.023-0.229,0.034h-0.034c-0.034,0-0.069-0.011-0.103-0.023
				c-1.258-0.423-11.276-24.426-18.446-37.383c2.219,0.537,4.643,1.384,5.947,2.619c2.779,2.665,3.762,5.329,5.226,5.386
				c1.475,0.057,3.465,1.178,4.426,3.557c0.972,2.379,1.853,0.56,2.722,0c0.858-0.56,0.778-5.775,2.699-5.295
				c1.921,0.48,1.429,0.32,4.368-5.558c2.939-5.878,5.718-10.521,11.767-10.978C250.442,216.58,252.329,218.307,253.987,220.697z"/>
			<path style="fill:#938179;" d="M281.901,217.449c-1.738,5.386,1.853,7.845-1.898,11.104c-3.762,3.271-3.431,3.762-2.127,7.845
				c1.304,4.083,0.675,10.532-0.4,12.293c-3.305-4.883-7.891-12.956-12.225-18.926c1.406-1.532,2.973-3.659,4.551-5.992
				c0.32,0.297,0.48,0.457,0.48,0.457s6.781-9.137,12.442-15.655C284.417,209.398,283.319,213.035,281.901,217.449z"/>
			<path style="fill:#ADA39C;" d="M249.367,225.616c0,0-1.537,6.183-4.159,12.975c-2.621,6.792-5.235,7.773-4.418,12.837
				c0.817,5.064-3.406,6.548-1.54,9.972c1.867,3.424,3.255,6.34,4.848,5.127c1.593-1.213-1.472-6.63,2.021-12.498
				c3.493-5.868,4.636-10.935,4.146-14.201c-0.49-3.266,0.582-3.425,2.252-6.531c1.669-3.106,1.271-6.537,0.572-7.68
				C252.389,224.472,249.77,224.099,249.367,225.616z"/>
			<path style="fill:#ADA39C;" d="M198.642,218.101c0,0-1.634,4.803-0.817,11.55c0.817,6.747,3.104,3.128,3.022,8.94
				c-0.082,5.812-1.988,8.099,0.517,9.406c2.505,1.307,5.398,4.221,3.952,6.032c-1.447,1.81-11.944,3.28-11.923-4.071
				C193.414,242.606,191.781,223.329,198.642,218.101z"/>
			<path style="fill:#D1C9C3;" d="M255.876,228.025c0,0,5.049,4.467,7.295,10.565c2.246,6.098,6.263,9.774,7.563,9.529
				c1.3-0.245-0.171-4.889-3.479-10.041c-3.308-5.152-7.841-11.523-9.802-12.381C255.493,224.84,254.099,226.223,255.876,228.025z"
				/>
			<path style="fill:#D1C9C3;" d="M201.365,218.958c0,0,2.333,4.205,4.339,11.537c2.005,7.332,3.231,12.742,4.456,10.098
				c1.225-2.644-1.135-11.184-3.631-15.98C204.033,219.816,201.514,216.753,201.365,218.958z"/>
		</g>
		<g>
			<path style="fill:#5F3E1B;" d="M350.956,321.579c0,0,13.38-5.22,34.569-6.612c21.189-1.392,21.921-0.174,24.663-3.306
				c2.742-3.132-1.828-3.132,2.742-4.698c4.57-1.566,6.764-6.085,5.667-8.698c-1.097-2.613-3.465-6.093,0.279-8.355
				c3.743-2.262,9.41-5.046,8.131-10.092s-8.334-7.369-12.721-6.499c-4.388,0.87-6.017-0.702-7.662-0.702
				c-1.645,0-4.263,0.72-3.426-1.156c0.276-0.618,5.088,0.562,5.636-3.615c0.548-4.176-3.031-7.209-4.676-11.559
				c-1.645-4.35-11.811-1.406-15.847,0.471c-4.201,1.954-11.943,9.662-19.072,16.448c-7.13,6.786-10.969,10.614-10.969,10.614
				s1.462,9.443-0.731,17.25c-2.194,7.807-2.48,11.178-7.376,13.201c-4.896,2.023-7.797,2.784-9.442,5.394
				C339.073,322.276,345.112,323.443,350.956,321.579z"/>
			<path style="fill:#A2C037;" d="M413.72,289.654c-3.351,2.127-1.235,5.397-0.252,7.845c0.983,2.459-0.983,6.701-5.066,8.165
				c-4.082,1.475,0,1.475-2.447,4.414c-2.447,2.939-3.11,1.795-22.036,3.099c-18.937,1.315-30.899,6.21-30.899,6.21
				c-5.215,1.75-10.612,0.652-9.148-1.795c1.475-2.447,4.071-3.168,8.439-5.066c4.38-1.898,4.631-5.066,6.598-12.396
				c0.046-0.149,0.08-0.297,0.114-0.457l1.041,15.347c0,0,0,0,0.011-0.012c0-0.011,0.011-0.011,0-0.023
				c0.297-0.801,5.878-16.284,3.602-22.254c-1.235-3.259-2.173-7.193-2.79-10.178c1.041-1.064,2.699-2.756,4.906-4.997
				c1.064-1.075,2.253-2.264,3.568-3.579c1.406-1.407,2.893-2.745,4.403-4.025c0.046-0.034,0.08-0.057,0.114-0.091
				c0.503-0.4,1.006-0.812,1.487-1.235c0.069-0.057,0.137-0.126,0.206-0.183c4.723-3.831,9.309-6.93,11.516-8.84
				c1.635-1.418,5.226-2.745,8.554-3.168c3.202-0.412,6.164,0.011,6.884,2.024c1.464,4.083,3.591,5.386,3.099,9.309
				c-0.492,3.922-6.861,2.127-6.861,4.048c0,1.933,1.635,1.338,3.111,1.338c1.464,0,3.591,2.939,7.513,2.127
				c3.922-0.812,10.452,0.16,11.596,4.906C422.125,284.919,417.059,287.526,413.72,289.654z"/>
			<path style="fill:#8AA51C;" d="M390.929,292.101c1.304,2.699,15.884-0.732,18.331,1.715c2.447,2.459,2.699,4.906,0.617,6.313
				c-2.081,1.406-9.686-1.167-11.15,0.675c-1.475,1.841,6.736,1.224,5.878,3.305c-0.858,2.093-12.625-1.338-16.673,0
				c-4.037,1.35,3.808,2.333,9.08,2.699c5.26,0.366,3.774,2.825-6.084,3.556c-9.846,0.732-16.467-0.492-21.247,1.098
				c-4.62,1.555-9.32,3.431-9.606,3.545c0-0.011,0.011-0.011,0-0.023c0.297-0.801,5.878-16.284,3.602-22.254
				c-1.235-3.259-2.173-7.193-2.79-10.178c1.041-1.064,2.699-2.756,4.906-4.997c1.064-1.075,2.253-2.264,3.568-3.579
				c1.406-1.407,2.893-2.745,4.403-4.025c0.046-0.034,0.08-0.057,0.114-0.091c0.503-0.4,1.006-0.812,1.487-1.235
				c0.069-0.057,0.137-0.126,0.206-0.183c4.723-3.831,9.309-6.93,11.516-8.84c1.635-1.418,5.226-2.745,8.554-3.168
				c2.219,0.343,2.253,1.224,1.006,1.99c-1.601,0.972-6.255,1.83-11.035,5.866c-4.78,4.048-5.26,4.391-8.691,7.525
				c-3.431,3.133-6.987,3.591-5.523,4.529c1.475,0.938,6.049-2.367,8.908-5.192c2.859-2.813,5.775-6.598,10.624-8.508
				c4.86-1.898,6.816-2.916,8.405-2.036c1.601,0.869,0.743,3.442,1.715,4.3c0.983,0.858-0.366,1.715-4.529,2.321
				c-4.163,0.618-11.882,4.174-11.15,6.198c0.732,2.013,4.037-1.784,7.719-2.276c3.671-0.492,1.464,1.349,1.464,2.939
				c0,1.601,1.841,1.235,4.048,1.235s3.671,3.797-2.207,3.797c-5.878,0-17.028,1.487-18.011,4.471
				c-0.983,2.996,9.8-2.516,18.263-2.024c8.451,0.492,11.264-6.13,16.662-3.671c5.386,2.447-5.512,4.54-3.682,5.695
				c1.841,1.167,6.004-2.504,6.495,0s-2.23,4.952-10.063,5.878C398.236,290.385,389.636,289.413,390.929,292.101z"/>
			<path style="fill:#7A8C10;" d="M393.216,299.923c-0.252,1.612-6.129,0.881-11.893,3.088c-5.752,2.207-8.325,4.048-12.865,5.02
				c-4.323,0.938-8.051,6.461-8.382,6.953c0.297-0.801,5.878-16.284,3.602-22.254c-1.235-3.259-2.173-7.193-2.79-10.178
				c1.041-1.064,2.699-2.756,4.906-4.997c0.355,1.761,4.163,0.092,4.746,1.704c0.617,1.692,6.53-4.597,8.965-2.916
				c2.436,1.67-1.978,1.532-4.677,5.832c-2.687,4.3,0.355,6.381,5.386,5.638c5.032-0.732,9.32-3.717,11.401-2.161
				c2.081,1.555-1.235,1.921-3.488,3.82c-2.264,1.898,0.8,1.67-3.008,3.259c-3.797,1.578-10.898,0.823-10.406,2.733
				c0.492,1.91,11.641-1.155,14.214,1.178C391.5,298.962,393.456,298.31,393.216,299.923z"/>
		</g>
		<g>
			<path style="fill:#5F3E1B;" d="M169.604,264.275c0,0-8.762-14.124-13.326-19.076c-4.564-4.952-6.572-4.035-10.77-3.118
				c-4.199,0.917-5.659-4.818-10.587-2.134c-4.929,2.684-2.008,5.619-8.945,4.335c-6.937-1.284-8.397,1.284-9.675,3.118
				c-1.278,1.834-6.206,0.079-6.572,4.35s17.159,11.608,22.453,19.128c5.294,7.52,16.794,2.935,16.794,2.935L169.604,264.275z"/>
			<path style="fill:#A2C037;" d="M167.439,263.68c0,0-7.842-12.579-11.926-16.99c-4.084-4.411-5.881-3.594-9.639-2.777
				c-3.757,0.817-5.064-4.291-9.475-1.9c-4.411,2.391-1.797,5.004-8.005,3.861c-6.208-1.144-7.515,1.144-8.658,2.777
				c-1.144,1.634-5.555,0.071-5.881,3.874c-0.327,3.804,15.356,10.338,20.094,17.036c4.738,6.698,15.03,2.614,15.03,2.614
				L167.439,263.68z"/>
			<path style="fill:#8AA51C;" d="M135.828,268.336c0,0-2.614-3.676-8.74-8.413c-6.126-4.738-7.841-5.636-7.351-6.943
				s1.144-1.389,2.287-1.389c1.144,0,3.842,2.569,5.719,3.653s-2.86-3.898-3.759-4.96c-0.898-1.062,1.473-2.614,3.759-2.451
				c2.286,0.163,5.962,8.218,7.595,9.378c1.634,1.16,1.634-0.964-0.163-3.823c-1.797-2.859-3.594-4.843-2.696-5.566
				c0.898-0.723,1.96-1.213,2.777-0.642c0.817,0.572,2.69,6.97,4.408,6.63c1.718-0.34-3.202-7.283-2.539-8.753
				c0.663-1.47,2.868-1.225,4.747,0c1.879,1.225,4.002,7.678,5.391,7.188c1.389-0.49-3.349-5.636-1.552-5.963
				c1.797-0.327,2.578,4.493,3.903,4.003c1.325-0.49-1.452-4.574-1.452-4.819c0-0.245,1.144-1.144,3.676,0.49
				c2.532,1.634,7.352,12.482,7.352,12.482S136.889,268.499,135.828,268.336z"/>
			<path style="fill:#7A8C10;" d="M139.423,268.338c0,0-1.873-2.616-3.02-4.086c-1.147-1.47-2.699-1.225-4.088-2.614
				c-1.389-1.389-3.186-2.614-3.676-3.676c-0.49-1.062,0.49-1.307,1.144-1.225c0.653,0.082,3.022,2.532,3.676,2.532
				c0.653,0,3.022-0.408,4.084,0.408c1.062,0.817,1.143-1.829,1.552-2.466c0.409-0.637,1.062-0.723,2.124,0.178
				c1.062,0.9,1.307,2.779,2.124,2.697c0.817-0.082-1.879-4.548-2.124-6.276c-0.245-1.729-0.005-2.954-0.574-3.852
				c-0.569-0.898-0.406-1.552,0.574-1.307c0.98,0.245,4.084,8.708,5.228,8.561c1.144-0.147-1.307-2.98-0.49-3.401
				c0.817-0.422,2.205,0.758,2.532,1.434c0.327,0.676,0.372,2.555,1.126,1.411c0.753-1.144-1.371-4.248-0.717-4.819
				c0.654-0.572,1.797,0.98,2.165,1.552c0.368,0.572,1.266,3.141,1.511,1.856c0.245-1.284-1.715-4.715-0.817-5.123
				s1.389-0.082,2.491,2.451c1.103,2.532,3.785,7.164,3.785,7.164L139.423,268.338z"/>
		</g>
		<g>
			<path style="fill:#5F3E1B;" d="M195.603,262.628c0,0-7.531-7.593-17.116-7.379c-9.585,0.214-12.495,3.687-12.495,3.687
				s-5.657-3.665-11.639-1.861c-5.982,1.804-7.189,5.553-7.189,5.553s-5.82-1.433-7.874,4.12c0,0-13.818-0.179-16.58,12.718
				c0,0-1.392,2.329,2.202,3.941c0,0,0,3.224,3.766,4.299c0,0,2.773,5.112,8.08,5.47c0,0,7.058,6.182,14.589,5.465
				c0,0,3.007,0.65,8.005,6.616c4.999,5.967,16.054,6.452,16.054,6.452s4.108,4.657,16.089,5.553
				c11.981,0.896,16.715-1.385,25.332,1.791c12.323,4.543,18.74,4.425,22.86,4.543c6.861,0.197,6.409-10.992,6.237-17.082
				c-0.171-6.09-0.685-12.718-0.685-12.718s4.45-7.165,4.108-11.464c-0.342-4.299-3.937-7.523-6.675-8.956
				c0,0-0.94-4.657-9.199-6.269c-8.259-1.612-12.709-0.717-12.709-0.717s-2.568-6.807-12.837-7.702
				C201.432,258.12,195.603,262.628,195.603,262.628z"/>
			<path style="fill:#F7EA3A;" d="M246.119,287.618c-1.178,3.088-3.042,5.958-3.042,5.958s0.492,6.049,0.652,11.596
				c0.16,5.558-2.767,16.57-6.701,16.662c-3.934,0.103-12.408-3.911-21.064-5.226c-8.668-1.304-12.751-0.812-24.186-1.635
				c-11.436-0.812-15.358-5.054-15.358-5.054s-8.462,1.189-13.231-4.254c-4.769-5.443-11.756-10.132-11.756-10.132
				c-7.193,0.663-13.563-3.751-13.563-3.751c-5.066-0.332-6.049-3.762-6.049-3.762c-3.591-0.972-3.591-3.923-3.591-3.923
				c-1.555-0.663-2.127-1.464-2.299-2.138c-0.206-0.812,0.194-1.452,0.194-1.452c0.172-0.755,0.389-1.464,0.64-2.127
				c3.648-9.606,15.187-9.469,15.187-9.469c1.967-5.066,7.513-3.762,7.513-3.762s1.155-3.419,6.861-5.066
				c5.718-1.635,11.115,1.704,11.115,1.704s2.779-3.168,11.927-3.362c9.148-0.195,16.33,6.724,16.33,6.724s5.569-4.105,11.767-3.591
				c9.8,0.812,12.248,7.021,12.248,7.021s4.254-0.812,12.133,0.652c3.842,0.72,6.027,2.093,7.25,3.316
				c1.292,1.292,1.532,2.401,1.532,2.401c0.515,0.263,1.064,0.583,1.613,0.961c0.869,0.606,1.75,1.361,2.504,2.241
				c1.178,1.361,2.081,3.053,2.253,4.975C247.103,284.439,246.702,286.063,246.119,287.618z"/>
			<g>
				<path style="fill:#EAC52D;" d="M243.077,293.576c0,0,0.492,6.049,0.652,11.596c0.16,5.558-2.767,16.57-6.701,16.662
					c-0.137,0-0.286,0-0.446-0.011c-4.105-0.172-12.282-3.945-20.618-5.215c-8.668-1.304-12.751-0.812-24.186-1.635
					c-11.081-0.789-15.107-4.791-15.347-5.043c-0.011,0-0.011-0.011-0.011-0.011s-8.462,1.189-13.231-4.254
					c-4.769-5.443-11.756-10.132-11.756-10.132c-7.193,0.663-13.563-3.751-13.563-3.751c-5.066-0.332-6.049-3.762-6.049-3.762
					c-3.591-0.972-3.591-3.923-3.591-3.923c-3.431-1.464-2.104-3.591-2.104-3.591c0.172-0.755,0.389-1.464,0.64-2.127
					c1.361,1.795,3.408,3.374,6.45,3.797c8.085,1.109,12.991-5.112,15.438-4.082c2.447,1.029-2.767,6.713-5.672,6.804
					c-2.905,0.103-4.586,1.567-3.316,2.31c1.269,0.732,5.306,0.24,9.114-3.431c2.848-2.767,3.557-4.677,4.254-5.386
					c-5.889-1.967-14.432-3.602-14.432-3.602l0.572-1.715c7.273,0,19.12,5.02,19.12,5.02l-0.652,2.322
					c-0.549-0.389-1.326-0.778-2.253-1.155c-1.338,2.436-4.677,7.993-7.719,9.046c-3.922,1.349,1.715,0.972,4.906-1.098
					c3.179-2.081,3.431-4.414,3.431-4.414s1.349,0,2.081,0.617c0.732,0.606-2.699,4.368-5.764,6.724
					c-3.065,2.344-1.715,3.934,0.984,2.585c2.699-1.349,4.048-3.293,4.048-3.293s1.589,0.48,1.589,1.818
					c0,1.349-1.841,0.617,1.224,6.495c3.065,5.889,6.37,8.828,9.434,8.828c3.065,0-2.779-9.32-2.161-11.779
					c0.618-2.447,1.544-1.338,1.544-1.338s2.093,9.068,4.174,10.658c2.081,1.601-2.459-8.085-1.349-10.532
					c1.098-2.447,2.813-1.349,2.813-1.349s1.601,11.641,4.906,14.34c3.305,2.687-0.126-4.54,1.224-5.638
					c1.349-1.109,3.305-0.801,3.305-0.801s0.24,6.038,4.654,7.033s7.479,1.853,7.719-2.802c0.251-4.654,3.922-2.939,3.922-2.939
					s-2.687,5.329,2.573,6.53c5.272,1.189,11.767-0.4,10.91-3.465c-0.023-0.08-0.034-0.137-0.046-0.206
					c-3.431,1.247-6.816,2.527-8.645,3.408l-0.846-3.453c0,0,14.638-5.341,20.104-5.867c0.343-0.48,0.652-1.006,0.949-1.601
					c0.64-1.304,1.121-2.642,1.51-3.968c-5.558-7.582-14.558-12.385-14.558-12.385l1.372-2.322
					c3.923,1.052,10.132,6.461,14.18,10.315c0.217-1.212,0.4-2.379,0.595-3.488c-6.576-6.21-15.518-9.389-15.518-9.389l1.006-2.493
					c3.98,0.446,10.795,4.757,15.37,7.948c0.24-0.789,0.537-1.521,0.903-2.161c-5.523-3.808-10.99-5.752-10.99-5.752l1.006-2.493
					c3.156,0.355,8.108,3.145,12.305,5.878c0.011-0.011,0.023-0.023,0.046-0.034c2.333-1.246,4.643-2.687,6.518-3.877
					c1.292,1.292,1.532,2.401,1.532,2.401c1.327,0.675,2.882,1.761,4.117,3.202c0.457,3.008,0.96,6.427,1.372,9.469
					C244.941,290.706,243.077,293.576,243.077,293.576z"/>
				<path style="fill:#EAC52D;" d="M162.407,282.059l0.64,1.493c0.069-0.387,1.15-1.283,8.059-2.708
					c5.299-1.093,9.048-1.007,11.509-0.696c0.45,0.708,0.91,1.478,1.376,2.344c-1.959-0.777-6.762-1.499-12.027-0.35
					c-6.739,1.47-9.557,4.411-9.557,4.411l0.64,1.493c0.069-0.387,1.15-1.283,8.059-2.708c7.839-1.617,12.294-0.657,14.184-0.198
					c0.189,0.416,0.375,0.842,0.561,1.287c-2.166-0.714-6.692-1.279-11.621-0.203c-6.739,1.47-9.557,4.411-9.557,4.411l0.64,1.493
					c0.069-0.387,1.15-1.283,8.059-2.708c7-1.444,11.295-0.833,13.483-0.359c0.681,1.938,1.318,4.073,1.855,6.474h2.743
					c0,0-1.307-14.376-9.965-20.747h-3.267c0,0,0.947,0.757,2.308,2.434c-2.329-0.277-5.36-0.275-8.565,0.425
					C165.225,279.118,162.407,282.059,162.407,282.059z"/>
				<path style="fill:#EAC52D;" d="M193.639,293.413h2.743c0,0-1.307-14.376-9.965-20.747h-3.267
					C183.149,272.665,190.256,278.288,193.639,293.413z"/>
				<path style="fill:#EAC52D;" d="M198.622,290.785h2.743c0,0-1.307-14.376-9.965-20.747h-3.267
					C188.132,270.038,195.238,275.66,198.622,290.785z"/>
				<path style="fill:#EAC52D;" d="M160.904,274.757c0,0-11.844-5.018-19.114-5.018l-0.572,1.715c0,0,15.193,2.913,19.032,5.622
					L160.904,274.757z"/>
				<path style="fill:#EAC52D;" d="M164.09,271.526c0,0-11.844-5.018-19.114-5.018l-0.572,1.715c0,0,15.193,2.913,19.032,5.622
					L164.09,271.526z"/>
				<path style="fill:#EAC52D;" d="M201.704,299.457c4.718-1.958,19.36-7.106,19.36-7.106v-2.224
					c-5.391,0.472-20.217,5.879-20.217,5.879L201.704,299.457z"/>
				<path style="fill:#EAC52D;" d="M203.68,303.639c4.641-2.221,19.36-7.106,19.36-7.106v-2.224
					c-5.391,0.472-20.217,5.879-20.217,5.879L203.68,303.639z"/>
			</g>
			<path style="fill:#DB9A26;" d="M236.582,321.822c-4.105-0.172-12.282-3.945-20.618-5.215c-8.668-1.304-12.751-0.812-24.186-1.635
				c-11.081-0.789-15.107-4.791-15.347-5.043c-0.011,0-0.011-0.011-0.011-0.011c-0.64-1.041-0.16-2.859,1.315-2.047
				c1.464,0.812,5.466,3.591,6.324,3.351c0.858-0.252-1.83-4.494-0.903-5.398c0.915-0.892,0.789,1.807,3.728,3.682
				c2.939,1.875,9.96,4.003,11.264,2.939c1.315-1.064-1.338-4.78,0-5.638c1.349-0.858,1.841,4.54,4.677,5.763
				c2.836,1.224,14.317-0.858,18.24-0.858c3.922,0,4.288-2.081,2.699-2.573c-1.59-0.492-9.926,1.349-9.56,0
				c0.377-1.349,5.764-1.715,7.845-2.207c2.081-0.492,2.081-1.715,0.995-1.944c-1.086-0.24-6.758,1.327-7.376,0.675
				c-0.618-0.652,0.011-1.555,2.093-2.024c2.081-0.48,8.691-2.836,10.04-4.46c1.349-1.635,0.366-3.396,1.349-7.079
				c0.983-3.671,4.163-4.654,4.163-4.654s-0.194,3.431-0.332,6.861C232.865,297.041,235.496,314.709,236.582,321.822z"/>
			<path style="fill:#A2C037;" d="M206.422,271.817c0,0-2.941-0.969-5.881-0.847c-2.941,0.122-3.676,0.418-3.676,0.418l2.022,4.544
				c0,0,8.025,0.429,8.699,0.551C207.586,276.484,207.402,273.338,206.422,271.817z"/>
			<path style="fill:#A2C037;" d="M164.703,268.887c0,0-0.122,4.043,0.735,6.31l5.697-1.352l-1.225-6
				C169.91,267.846,166.724,267.539,164.703,268.887z"/>
			<path style="fill:#A37E4E;" d="M188.534,297.926c0,0,3.859-2.53,7.29-3.133c3.431-0.604,4.043,1.296,3.063,3.133
				c-0.98,1.838-4.329,2.573-7.433,3.431c-3.104,0.858-3.839-0.059-3.962-1.224C187.37,298.967,188.07,298.214,188.534,297.926z"/>
			<path style="fill:#A37E4E;" d="M212.12,285.612c0,0,1.103,2.879,2.695,3.308c1.593,0.429,0.735-2.389-0.796-4.288
				C212.487,282.733,211.187,283.845,212.12,285.612z"/>
			<path style="fill:#A37E4E;" d="M155.636,288.92c0,0,1.715,1.822,3.798,3.209c2.083,1.386,2.45-1.104,1.041-2.708
				C159.066,287.817,155.697,287.756,155.636,288.92z"/>
			<path style="fill:#FF723F;" d="M181.407,265.232c0,0-3.267,0.264-3.186,1.276c0.082,1.011,3.022,1.442,5.473,1.308
				c2.451-0.133,1.634-1.44,1.225-2.094C184.511,265.069,181.407,265.232,181.407,265.232z"/>
			<path style="fill:#A2C037;" d="M177.568,285.163c0,0-2.45,3.878-1.225,7.371h4.288l0.48-6.877L177.568,285.163z"/>
		</g>
		<g>
			<g>
				<path style="fill:#5F3E1B;" d="M263.188,269.516c0,0,2.282-13.038,14.923-16.796c12.641-3.757,19.839-1.47,24.052-0.653
					c4.214,0.817,11.061,7.351,13.518,9.965c2.458,2.614-1.931,12.253-1.931,12.253L296.896,284.9
					C296.896,284.9,262.31,281.737,263.188,269.516z"/>
				<path style="fill:#9B8F89;" d="M265.132,271.817c0,0,2.124-13.038,13.886-16.796c11.762-3.757,18.46-1.47,22.381-0.654
					c3.921,0.817,10.292,7.352,12.579,9.965c2.287,2.614-1.797,12.253-1.797,12.253l-15.683,10.615
					C296.498,287.201,264.315,284.038,265.132,271.817z"/>
				<path style="fill:#938179;" d="M272.32,269.643c0,0,0.98-5.064,4.329-5.799c3.349-0.735,5.309,3.676,7.433,3.512
					c2.124-0.163,2.777-2.205,5.228-1.797c2.451,0.408,5.146,2.124,6.29,0.654c1.143-1.47,2.532-4.352,4.901-3.565
					c2.369,0.787,0.643-2.673,3.221-2.046c2.578,0.628,4.375,5.12,4.375,5.12l-12.743,13.54L272.32,269.643z"/>
				<path style="fill:#938179;" d="M291.347,263.107c0,0,0.191,1.135,2.531,0c2.34-1.135,3.008-2.743,2.722-3.689
					s-1.671,1.324-3.247,1.324c-1.576,0-2.767-0.432-2.816,0.636S291.347,263.107,291.347,263.107z"/>
				<path style="fill:#938179;" d="M278.629,261.181c0,0,1.615,2.928,3.98,3.243c2.365,0.315,2.884-0.968,2.596-1.511
					c-0.288-0.543-2.711-0.066-3.922-1.749S278.052,259.103,278.629,261.181z"/>
				<path style="fill:#938179;" d="M269.053,265.559c0,0,1.715-3.819,3.063-3.686c1.348,0.133-0.368,2.297-0.654,3.931
					c-0.286,1.634,0.306,2.614-0.623,3.022c-0.929,0.408-1.664,0.163-1.787,0C268.93,268.663,268.648,266.375,269.053,265.559z"/>
			</g>
			<g>
				<path style="fill:#5F3E1B;" d="M290.536,288.817c0,0,3.02-18.565,20.429-25.884c17.409-7.319,32.463-5.27,41.167,2.763
					c8.704,8.033,13.146,12.852,14.567,26.776c1.421,13.924-1.599,16.601-4.796,21.421c-3.198,4.82-13.323,10.175-29.844,9.461
					c-16.521-0.714-27.002-4.106-27.002-4.106L290.536,288.817z"/>
				<path style="fill:#ADA39C;" d="M294.035,288.582c0,0,2.777-16.99,18.787-23.688c16.01-6.698,28.589-5.228,36.594,2.124
					s12.089,11.762,13.396,24.505c1.307,12.743-1.47,15.193-4.411,19.604c-2.941,4.411-12.252,9.312-27.445,8.658
					c-15.193-0.653-24.832-3.757-24.832-3.757L294.035,288.582z"/>
				<path style="fill:#9B8F89;" d="M309.568,269.398c0,0-5.718,5.228,0,10.129c5.718,4.901,0.691,8.985,3.204,12.252
					c2.513,3.267,7.905,5.081,10.028,10.3c2.124,5.22,4.738,5.654,14.866,2.905c10.129-2.749,15.532,0.12,18.134,3.132
					c2.601,3.011-5.554,10.292-20.094,8.658c-14.539-1.634-22.054-0.163-25.322-3.431c-3.267-3.267-10.292-22.819-10.455-28.971
					c-0.163-6.152,2.941-9.809,5.228-12.555C307.444,269.071,311.218,267.227,309.568,269.398z"/>
				<path style="fill:#9B8F89;" d="M318.064,270.212c0,0-0.329,4.005,2.122,5.966c2.451,1.96-1.756,4.533-3.757,2.083
					c-2.001-2.451-1.792-9.096,0.003-9.817S318.064,270.212,318.064,270.212z"/>
				<path style="fill:#9B8F89;" d="M324.597,295.814c0,0,3.186,3.261,7.106,3.942c3.921,0.681,10.66-0.789,9.924-3.117
					c-0.735-2.328-6.316,0.245-8.488-0.368c-2.172-0.613-3.005-2.451-5.039-2.573c-2.034-0.122-1.911-2.451-3.504-2.205
					C323.004,291.738,322.865,294.353,324.597,295.814z"/>
				<path style="fill:#9B8F89;" d="M349.225,293.086c0,0,3.091,0.699,5.65-1.611s4.596-2.694,5.109-0.786
					c0.513,1.907-1.325,4.913-6.471,5.126C348.367,296.026,347.509,294.556,349.225,293.086z"/>
				<path style="fill:#D1C9C3;" d="M325.822,266.988c0,0,6.249-1.021,9.924,0.776c3.676,1.797,3.542,3.858,5.937,4.053
					c2.395,0.194,3.117-0.419,6.738,1.97c3.621,2.39,5.969,11.212,7.858,9.619c1.889-1.593-0.684-8.983-3.992-11.108
					c-3.308-2.125-4.043-2.049-5.881-3.986c-1.838-1.937-6.616-4.755-12.742-5c-6.126-0.245-10.581,0.122-10.314,2.083
					C323.617,267.356,325.822,266.988,325.822,266.988z"/>
			</g>
			<g>
				<path style="fill:#5F3E1B;" d="M231.233,319.551c0,0-0.421,4.688,28.233,6.99c28.654,2.301,50.447-5.245,52.878-10.91
					c2.431-5.665-5.99-26.797-13.284-33.524c-7.294-6.727-9.03-6.373-17.366-10.268s-25.875-8.143-40.463,3.541
					C226.645,287.063,226.892,314.771,231.233,319.551z"/>
				<path style="fill:#BFB8B2;" d="M234.746,318.081c0,0-1.797,4.247,25.158,6.371c26.955,2.124,46.069-6.371,48.356-11.599
					c2.287-5.228-4.247-23.198-11.109-29.406c-6.861-6.208-8.495-5.881-16.337-9.475c-7.842-3.594-24.342-7.515-38.064,3.267
					C229.028,288.022,230.662,313.67,234.746,318.081z"/>
				<path style="fill:#ADA39C;" d="M237.768,316.366c0,0-4.411-7.962-2.696-18.561c1.715-10.6,3.553-10.477,5.023-8.394
					c1.47,2.083,0.454,9.312,3.29,10.66c2.836,1.348,6.267,0.245,9.207,5.391c2.941,5.146,12.62,6.861,16.908,4.901
					c4.288-1.96,6.616-1.225,15.193,2.451c8.577,3.676,14.861-4.353,19.971-4.043c5.111,0.309-3.4,13.563-26.833,14.213
					S238.387,317.675,237.768,316.366z"/>
				<path style="fill:#ADA39C;" d="M292.128,303.639c0,0,3.308,0.474,6.249-1.241c2.941-1.715,2.941-4.785,1.593-6.191
					c-1.348-1.406-1.827,1.303-3.487,2.767c-1.659,1.464-5.946,1.341-5.947,2.934C290.535,303.5,291.395,303.585,292.128,303.639z"
					/>
				<path style="fill:#ADA39C;" d="M244.098,282.181c0,0,1.715,6.457,6.371,7.946c4.656,1.488,2.818-2.432,0.613-4.515
					c-2.205-2.083-1.593-4.656-2.941-6.616C246.794,277.035,244.221,279.486,244.098,282.181z"/>
				<path style="fill:#ADA39C;" d="M256.473,301.172c0,0,3.308,3.553,7.474,3.798c4.166,0.245,5.759-3.063,4.043-3.798
					c-1.715-0.735-5.391,1.105-7.842-1.04C257.699,297.987,255.089,299.944,256.473,301.172z"/>
				<path style="fill:#D1C9C3;" d="M255.138,277.035c0,0,11.995-2.696,18.734-0.735c6.739,1.96,0.367,3.963,2.695,5.657
					c2.328,1.694,4.656-1.492,6.984-1.369c2.328,0.122,7.367,3.491,10.484,7.994c3.116,4.504,4.219,0.697,3.239-1.382
					c-0.98-2.079-9.3-8.081-11.512-9.185c-2.211-1.103-5.397-1.839-5.397-1.839s-6.616-4.533-14.458-3.798
					c-7.842,0.735-11.596,0.858-12.905,2.451C251.695,276.422,253.237,277.411,255.138,277.035z"/>
			</g>
		</g>
	</g>
</g>
</svg>
